G75*
%MOIN*%
%OFA0B0*%
%FSLAX24Y24*%
%IPPOS*%
%LPD*%
%AMOC8*
5,1,8,0,0,1.08239X$1,22.5*
%
%ADD10C,0.0050*%
%ADD11C,0.0030*%
%ADD12C,0.0060*%
%ADD13C,0.0100*%
%ADD14C,0.0100*%
D10*
X007190Y010944D02*
X008450Y010944D01*
X008450Y011496D01*
X007190Y011496D01*
X007190Y010944D01*
X007190Y012414D02*
X008450Y012414D01*
X008450Y012966D01*
X007190Y012966D01*
X007190Y012414D01*
X007060Y013975D02*
X005840Y013975D01*
X005840Y014565D01*
X007060Y014565D01*
X007060Y013975D01*
X007050Y014665D02*
X005830Y014665D01*
X005830Y015255D01*
X007050Y015255D01*
X007050Y014665D01*
X005526Y015110D02*
X005526Y016370D01*
X004974Y016370D01*
X004974Y015110D01*
X005526Y015110D01*
X004605Y015149D02*
X004605Y016331D01*
X003975Y016331D01*
X003975Y015149D01*
X004605Y015149D01*
X008730Y012974D02*
X008730Y010926D01*
X009990Y010926D02*
X009990Y012974D01*
X009835Y014010D02*
X009245Y014010D01*
X009245Y015230D01*
X009835Y015230D01*
X009835Y014010D01*
X010185Y014615D02*
X011405Y014615D01*
X011405Y015205D01*
X010185Y015205D01*
X010185Y014615D01*
X011504Y014210D02*
X011504Y015470D01*
X012056Y015470D01*
X012056Y014210D01*
X011504Y014210D01*
X011591Y013585D02*
X011591Y013359D01*
X011546Y013314D01*
X011456Y013314D01*
X011411Y013359D01*
X011411Y013585D01*
X011705Y013495D02*
X011796Y013585D01*
X011796Y013314D01*
X011886Y013314D02*
X011705Y013314D01*
X013180Y016261D02*
X013180Y016536D01*
X013180Y017599D01*
X016960Y017599D01*
X016960Y016536D01*
X016960Y016261D01*
X013180Y016261D01*
X012750Y018734D02*
X011490Y018734D01*
X011490Y019286D01*
X012750Y019286D01*
X012750Y018734D01*
X014384Y019820D02*
X014384Y021080D01*
X014936Y021080D01*
X014936Y019820D01*
X014384Y019820D01*
X016970Y021160D02*
X016970Y022380D01*
X017560Y022380D01*
X017560Y021160D01*
X016970Y021160D01*
X017695Y021160D02*
X017695Y022380D01*
X018285Y022380D01*
X018285Y021160D01*
X017695Y021160D01*
X018070Y023143D02*
X018109Y023143D01*
X018109Y023616D01*
X017676Y023616D01*
X017204Y023616D02*
X016771Y023616D01*
X016771Y023143D01*
X016810Y023143D01*
X019100Y016616D02*
X019100Y016064D01*
X020360Y016064D01*
X020360Y016616D01*
X019100Y016616D01*
X019324Y015832D02*
X019324Y014808D01*
X019796Y014808D01*
X019796Y015832D01*
X019324Y015832D01*
X019100Y014576D02*
X019100Y014024D01*
X020360Y014024D01*
X020360Y014576D01*
X019100Y014576D01*
X018876Y012460D02*
X018324Y012460D01*
X018324Y011200D01*
X018876Y011200D01*
X018876Y012460D01*
X018096Y012460D02*
X018096Y011200D01*
X017544Y011200D01*
X017544Y012460D01*
X018096Y012460D01*
X019155Y011500D02*
X019155Y010280D01*
X019745Y010280D01*
X019745Y011500D01*
X019155Y011500D01*
X018850Y011086D02*
X017590Y011086D01*
X017590Y010534D01*
X018850Y010534D01*
X018850Y011086D01*
X016336Y009380D02*
X016336Y008120D01*
X015784Y008120D01*
X015784Y009380D01*
X016336Y009380D01*
X015110Y008476D02*
X015110Y007924D01*
X013850Y007924D01*
X013850Y008476D01*
X015110Y008476D01*
X012280Y008361D02*
X012280Y007809D01*
X011020Y007809D01*
X011020Y008361D01*
X012280Y008361D01*
X010506Y008970D02*
X010506Y010230D01*
X009954Y010230D01*
X009954Y008970D01*
X010506Y008970D01*
D11*
X009433Y009206D02*
X009385Y009254D01*
X009385Y009351D01*
X009433Y009399D01*
X009433Y009500D02*
X009385Y009549D01*
X009385Y009645D01*
X009433Y009694D01*
X009482Y009694D01*
X009530Y009645D01*
X009578Y009694D01*
X009627Y009694D01*
X009675Y009645D01*
X009675Y009549D01*
X009627Y009500D01*
X009627Y009399D02*
X009675Y009351D01*
X009675Y009254D01*
X009627Y009206D01*
X009433Y009206D01*
X009530Y009597D02*
X009530Y009645D01*
X010224Y008120D02*
X010176Y008072D01*
X010176Y007878D01*
X010224Y007830D01*
X010321Y007830D01*
X010369Y007878D01*
X010470Y007878D02*
X010470Y007830D01*
X010470Y007878D02*
X010664Y008072D01*
X010664Y008120D01*
X010470Y008120D01*
X010369Y008072D02*
X010321Y008120D01*
X010224Y008120D01*
X007934Y010465D02*
X007740Y010465D01*
X007934Y010658D01*
X007934Y010707D01*
X007885Y010755D01*
X007789Y010755D01*
X007740Y010707D01*
X007639Y010707D02*
X007591Y010755D01*
X007494Y010755D01*
X007446Y010707D01*
X007446Y010513D01*
X007494Y010465D01*
X007591Y010465D01*
X007639Y010513D01*
X008125Y011775D02*
X008173Y011775D01*
X008270Y011872D01*
X008415Y011872D01*
X008270Y011872D02*
X008173Y011968D01*
X008125Y011968D01*
X008222Y012070D02*
X008125Y012166D01*
X008415Y012166D01*
X008415Y012070D02*
X008415Y012263D01*
X007954Y013175D02*
X007760Y013175D01*
X007857Y013175D02*
X007857Y013465D01*
X007760Y013368D01*
X007659Y013417D02*
X007611Y013465D01*
X007514Y013465D01*
X007466Y013417D01*
X007466Y013223D01*
X007514Y013175D01*
X007611Y013175D01*
X007659Y013223D01*
X007633Y014185D02*
X007826Y014185D01*
X007730Y014185D02*
X007730Y014475D01*
X007633Y014378D01*
X007532Y014330D02*
X007483Y014282D01*
X007338Y014282D01*
X007435Y014282D02*
X007532Y014185D01*
X007532Y014330D02*
X007532Y014427D01*
X007483Y014475D01*
X007338Y014475D01*
X007338Y014185D01*
X007411Y014755D02*
X007315Y014852D01*
X007363Y014852D02*
X007218Y014852D01*
X007218Y014755D02*
X007218Y015045D01*
X007363Y015045D01*
X007411Y014997D01*
X007411Y014900D01*
X007363Y014852D01*
X007513Y014948D02*
X007609Y015045D01*
X007609Y014755D01*
X007513Y014755D02*
X007706Y014755D01*
X007807Y014755D02*
X008001Y014948D01*
X008001Y014997D01*
X007952Y015045D01*
X007856Y015045D01*
X007807Y014997D01*
X007807Y014755D02*
X008001Y014755D01*
X007976Y014475D02*
X008073Y014475D01*
X008121Y014427D01*
X008121Y014378D01*
X008073Y014330D01*
X008121Y014282D01*
X008121Y014233D01*
X008073Y014185D01*
X007976Y014185D01*
X007927Y014233D01*
X008024Y014330D02*
X008073Y014330D01*
X007976Y014475D02*
X007927Y014427D01*
X008705Y014438D02*
X008705Y014293D01*
X008995Y014293D01*
X008898Y014293D02*
X008898Y014438D01*
X008850Y014486D01*
X008753Y014486D01*
X008705Y014438D01*
X008753Y014587D02*
X008705Y014636D01*
X008705Y014732D01*
X008753Y014781D01*
X008802Y014781D01*
X008995Y014587D01*
X008995Y014781D01*
X008995Y014486D02*
X008898Y014389D01*
X010468Y014345D02*
X010468Y014055D01*
X010468Y014152D02*
X010613Y014152D01*
X010661Y014200D01*
X010661Y014297D01*
X010613Y014345D01*
X010468Y014345D01*
X010564Y014152D02*
X010661Y014055D01*
X010762Y014055D02*
X010956Y014055D01*
X010859Y014055D02*
X010859Y014345D01*
X010762Y014248D01*
X011623Y015755D02*
X011817Y015755D01*
X011865Y015803D01*
X011865Y015900D01*
X011817Y015948D01*
X011817Y016050D02*
X011865Y016098D01*
X011865Y016195D01*
X011817Y016243D01*
X011768Y016243D01*
X011720Y016195D01*
X011720Y016050D01*
X011817Y016050D01*
X011720Y016050D02*
X011623Y016146D01*
X011575Y016243D01*
X011623Y015948D02*
X011575Y015900D01*
X011575Y015803D01*
X011623Y015755D01*
X012715Y017345D02*
X012957Y017345D01*
X013005Y017393D01*
X013005Y017490D01*
X012957Y017538D01*
X012715Y017538D01*
X012763Y017640D02*
X012715Y017688D01*
X012715Y017785D01*
X012763Y017833D01*
X012812Y017833D01*
X012860Y017785D01*
X012908Y017833D01*
X012957Y017833D01*
X013005Y017785D01*
X013005Y017688D01*
X012957Y017640D01*
X012860Y017736D02*
X012860Y017785D01*
X012034Y018353D02*
X011985Y018305D01*
X011889Y018305D01*
X011840Y018353D01*
X011739Y018305D02*
X011546Y018305D01*
X011642Y018305D02*
X011642Y018595D01*
X011546Y018498D01*
X011445Y018547D02*
X011396Y018595D01*
X011299Y018595D01*
X011251Y018547D01*
X011251Y018353D01*
X011299Y018305D01*
X011396Y018305D01*
X011445Y018353D01*
X011840Y018547D02*
X011889Y018595D01*
X011985Y018595D01*
X012034Y018547D01*
X012034Y018498D01*
X011985Y018450D01*
X012034Y018402D01*
X012034Y018353D01*
X011985Y018450D02*
X011937Y018450D01*
X013855Y020213D02*
X013903Y020165D01*
X014097Y020165D01*
X014145Y020213D01*
X014145Y020310D01*
X014097Y020358D01*
X014145Y020460D02*
X014145Y020653D01*
X014145Y020556D02*
X013855Y020556D01*
X013952Y020460D01*
X013903Y020358D02*
X013855Y020310D01*
X013855Y020213D01*
X014000Y020754D02*
X014000Y020899D01*
X014048Y020948D01*
X014097Y020948D01*
X014145Y020899D01*
X014145Y020803D01*
X014097Y020754D01*
X014000Y020754D01*
X013903Y020851D01*
X013855Y020948D01*
X016410Y021638D02*
X016410Y021783D01*
X016458Y021832D01*
X016555Y021832D01*
X016603Y021783D01*
X016603Y021638D01*
X016603Y021735D02*
X016700Y021832D01*
X016700Y021933D02*
X016652Y021933D01*
X016458Y022126D01*
X016410Y022126D01*
X016410Y021933D01*
X016410Y021638D02*
X016700Y021638D01*
X018555Y021598D02*
X018603Y021646D01*
X018700Y021646D01*
X018748Y021598D01*
X018748Y021453D01*
X018748Y021549D02*
X018845Y021646D01*
X018797Y021747D02*
X018748Y021747D01*
X018700Y021796D01*
X018700Y021892D01*
X018748Y021941D01*
X018797Y021941D01*
X018845Y021892D01*
X018845Y021796D01*
X018797Y021747D01*
X018700Y021796D02*
X018652Y021747D01*
X018603Y021747D01*
X018555Y021796D01*
X018555Y021892D01*
X018603Y021941D01*
X018652Y021941D01*
X018700Y021892D01*
X018555Y021598D02*
X018555Y021453D01*
X018845Y021453D01*
X016748Y023915D02*
X016555Y023915D01*
X016651Y023915D02*
X016651Y024205D01*
X016555Y024108D01*
X016453Y024157D02*
X016453Y023963D01*
X016405Y023915D01*
X016308Y023915D01*
X016260Y023963D01*
X016260Y024157D01*
X016308Y024205D01*
X016405Y024205D01*
X016453Y024157D01*
X016357Y024012D02*
X016453Y023915D01*
X020499Y016445D02*
X020451Y016397D01*
X020451Y016203D01*
X020499Y016155D01*
X020596Y016155D01*
X020645Y016203D01*
X020746Y016155D02*
X020939Y016155D01*
X020842Y016155D02*
X020842Y016445D01*
X020746Y016348D01*
X020645Y016397D02*
X020596Y016445D01*
X020499Y016445D01*
X021040Y016397D02*
X021040Y016348D01*
X021089Y016300D01*
X021185Y016300D01*
X021234Y016252D01*
X021234Y016203D01*
X021185Y016155D01*
X021089Y016155D01*
X021040Y016203D01*
X021040Y016252D01*
X021089Y016300D01*
X021185Y016300D02*
X021234Y016348D01*
X021234Y016397D01*
X021185Y016445D01*
X021089Y016445D01*
X021040Y016397D01*
X018694Y014385D02*
X018694Y014337D01*
X018500Y014143D01*
X018500Y014095D01*
X018399Y014095D02*
X018206Y014095D01*
X018302Y014095D02*
X018302Y014385D01*
X018206Y014288D01*
X018105Y014337D02*
X018056Y014385D01*
X017959Y014385D01*
X017911Y014337D01*
X017911Y014143D01*
X017959Y014095D01*
X018056Y014095D01*
X018105Y014143D01*
X018500Y014385D02*
X018694Y014385D01*
X018465Y015135D02*
X018465Y015425D01*
X018320Y015280D01*
X018513Y015280D01*
X018218Y015183D02*
X018170Y015135D01*
X018073Y015135D01*
X018025Y015183D01*
X018025Y015425D01*
X018218Y015425D02*
X018218Y015183D01*
X018615Y013044D02*
X018615Y012850D01*
X018760Y012850D01*
X018712Y012947D01*
X018712Y012995D01*
X018760Y013044D01*
X018857Y013044D01*
X018905Y012995D01*
X018905Y012899D01*
X018857Y012850D01*
X018857Y012749D02*
X018905Y012701D01*
X018905Y012604D01*
X018857Y012556D01*
X018663Y012556D01*
X018615Y012604D01*
X018615Y012701D01*
X018663Y012749D01*
X017605Y012721D02*
X017605Y012624D01*
X017557Y012576D01*
X017363Y012576D01*
X017315Y012624D01*
X017315Y012721D01*
X017363Y012769D01*
X017363Y012870D02*
X017412Y012870D01*
X017460Y012919D01*
X017460Y013015D01*
X017508Y013064D01*
X017557Y013064D01*
X017605Y013015D01*
X017605Y012919D01*
X017557Y012870D01*
X017508Y012870D01*
X017460Y012919D01*
X017460Y013015D02*
X017412Y013064D01*
X017363Y013064D01*
X017315Y013015D01*
X017315Y012919D01*
X017363Y012870D01*
X017557Y012769D02*
X017605Y012721D01*
X018033Y010285D02*
X017985Y010237D01*
X017985Y010043D01*
X018033Y009995D01*
X018130Y009995D01*
X018178Y010043D01*
X018280Y010043D02*
X018328Y009995D01*
X018425Y009995D01*
X018473Y010043D01*
X018473Y010237D01*
X018425Y010285D01*
X018328Y010285D01*
X018280Y010237D01*
X018280Y010188D01*
X018328Y010140D01*
X018473Y010140D01*
X018178Y010237D02*
X018130Y010285D01*
X018033Y010285D01*
X016875Y008925D02*
X016585Y008925D01*
X016730Y008780D01*
X016730Y008974D01*
X016827Y008679D02*
X016875Y008631D01*
X016875Y008534D01*
X016827Y008486D01*
X016633Y008486D01*
X016585Y008534D01*
X016585Y008631D01*
X016633Y008679D01*
X014948Y007667D02*
X014754Y007473D01*
X014803Y007425D01*
X014899Y007425D01*
X014948Y007473D01*
X014948Y007667D01*
X014899Y007715D01*
X014803Y007715D01*
X014754Y007667D01*
X014754Y007473D01*
X014653Y007425D02*
X014460Y007425D01*
X014556Y007425D02*
X014556Y007715D01*
X014460Y007618D01*
X014358Y007667D02*
X014310Y007715D01*
X014213Y007715D01*
X014165Y007667D01*
X014165Y007473D01*
X014213Y007425D01*
X014310Y007425D01*
X014358Y007473D01*
X020025Y010618D02*
X020025Y010763D01*
X020073Y010812D01*
X020170Y010812D01*
X020218Y010763D01*
X020218Y010618D01*
X020218Y010715D02*
X020315Y010812D01*
X020315Y010913D02*
X020315Y011106D01*
X020315Y011010D02*
X020025Y011010D01*
X020122Y010913D01*
X020025Y010618D02*
X020315Y010618D01*
X020315Y011207D02*
X020315Y011401D01*
X020315Y011304D02*
X020025Y011304D01*
X020122Y011207D01*
X005465Y014039D02*
X005465Y014136D01*
X005417Y014185D01*
X005465Y014286D02*
X005465Y014479D01*
X005465Y014382D02*
X005175Y014382D01*
X005272Y014286D01*
X005223Y014185D02*
X005175Y014136D01*
X005175Y014039D01*
X005223Y013991D01*
X005417Y013991D01*
X005465Y014039D01*
X005465Y014580D02*
X005465Y014774D01*
X005465Y014677D02*
X005175Y014677D01*
X005272Y014580D01*
X004495Y014590D02*
X004302Y014784D01*
X004253Y014784D01*
X004205Y014735D01*
X004205Y014639D01*
X004253Y014590D01*
X004205Y014392D02*
X004495Y014392D01*
X004495Y014296D02*
X004495Y014489D01*
X004495Y014590D02*
X004495Y014784D01*
X004205Y014392D02*
X004302Y014296D01*
X004253Y014195D02*
X004205Y014146D01*
X004205Y014049D01*
X004253Y014001D01*
X004447Y014001D01*
X004495Y014049D01*
X004495Y014146D01*
X004447Y014195D01*
D12*
X011881Y013122D02*
X011881Y009578D01*
X012078Y009381D01*
X015622Y009381D01*
X015819Y009578D01*
X015819Y013122D01*
X015622Y013319D01*
X012078Y013319D01*
X011881Y013122D01*
X012315Y012728D02*
X012317Y012753D01*
X012323Y012777D01*
X012332Y012799D01*
X012345Y012820D01*
X012361Y012839D01*
X012380Y012855D01*
X012401Y012868D01*
X012423Y012877D01*
X012447Y012883D01*
X012472Y012885D01*
X012497Y012883D01*
X012521Y012877D01*
X012543Y012868D01*
X012564Y012855D01*
X012583Y012839D01*
X012599Y012820D01*
X012612Y012799D01*
X012621Y012777D01*
X012627Y012753D01*
X012629Y012728D01*
X012627Y012703D01*
X012621Y012679D01*
X012612Y012657D01*
X012599Y012636D01*
X012583Y012617D01*
X012564Y012601D01*
X012543Y012588D01*
X012521Y012579D01*
X012497Y012573D01*
X012472Y012571D01*
X012447Y012573D01*
X012423Y012579D01*
X012401Y012588D01*
X012380Y012601D01*
X012361Y012617D01*
X012345Y012636D01*
X012332Y012657D01*
X012323Y012679D01*
X012317Y012703D01*
X012315Y012728D01*
D13*
X019160Y015950D03*
D14*
X016960Y016536D02*
X013180Y016536D01*
M02*
