G75*
%MOIN*%
%OFA0B0*%
%FSLAX24Y24*%
%IPPOS*%
%LPD*%
%AMOC8*
5,1,8,0,0,1.08239X$1,22.5*
%
%ADD10R,0.0433X0.0394*%
%ADD11R,0.0394X0.0433*%
%ADD12R,0.0472X0.0118*%
%ADD13R,0.0118X0.0472*%
%ADD14R,0.0472X0.0217*%
%ADD15R,0.0260X0.0800*%
%ADD16R,0.0945X0.0787*%
%ADD17R,0.0472X0.0315*%
%ADD18R,0.0315X0.0354*%
D10*
X007485Y011220D03*
X008155Y011220D03*
X008155Y012690D03*
X007485Y012690D03*
X009540Y014285D03*
X009540Y014955D03*
X011785Y019010D03*
X012455Y019010D03*
X017265Y021435D03*
X017265Y022105D03*
X017990Y022105D03*
X017990Y021435D03*
X019395Y016340D03*
X020065Y016340D03*
X020065Y014300D03*
X019395Y014300D03*
X019450Y011225D03*
X019450Y010555D03*
X018555Y010810D03*
X017885Y010810D03*
X014815Y008200D03*
X014145Y008200D03*
X011985Y008085D03*
X011315Y008085D03*
D11*
X010230Y009265D03*
X010230Y009935D03*
X006785Y014270D03*
X006115Y014270D03*
X006105Y014960D03*
X006775Y014960D03*
X005250Y015405D03*
X005250Y016075D03*
X010460Y014910D03*
X011130Y014910D03*
X011780Y015175D03*
X011780Y014505D03*
X014660Y020115D03*
X014660Y020785D03*
X017820Y012165D03*
X017820Y011495D03*
X018600Y011495D03*
X018600Y012165D03*
X016060Y009085D03*
X016060Y008415D03*
D12*
X016114Y009874D03*
X016114Y010070D03*
X016114Y010267D03*
X016114Y010464D03*
X016114Y010661D03*
X016114Y010858D03*
X016114Y011055D03*
X016114Y011252D03*
X016114Y011448D03*
X016114Y011645D03*
X016114Y011842D03*
X016114Y012039D03*
X016114Y012236D03*
X016114Y012433D03*
X016114Y012630D03*
X016114Y012826D03*
X011586Y012826D03*
X011586Y012630D03*
X011586Y012433D03*
X011586Y012236D03*
X011586Y012039D03*
X011586Y011842D03*
X011586Y011645D03*
X011586Y011448D03*
X011586Y011252D03*
X011586Y011055D03*
X011586Y010858D03*
X011586Y010661D03*
X011586Y010464D03*
X011586Y010267D03*
X011586Y010070D03*
X011586Y009874D03*
D13*
X012374Y009086D03*
X012570Y009086D03*
X012767Y009086D03*
X012964Y009086D03*
X013161Y009086D03*
X013358Y009086D03*
X013555Y009086D03*
X013752Y009086D03*
X013948Y009086D03*
X014145Y009086D03*
X014342Y009086D03*
X014539Y009086D03*
X014736Y009086D03*
X014933Y009086D03*
X015130Y009086D03*
X015326Y009086D03*
X015326Y013614D03*
X015130Y013614D03*
X014933Y013614D03*
X014736Y013614D03*
X014539Y013614D03*
X014342Y013614D03*
X014145Y013614D03*
X013948Y013614D03*
X013752Y013614D03*
X013555Y013614D03*
X013358Y013614D03*
X013161Y013614D03*
X012964Y013614D03*
X012767Y013614D03*
X012570Y013614D03*
X012374Y013614D03*
D14*
X019048Y014946D03*
X019048Y015320D03*
X019048Y015694D03*
X020072Y015694D03*
X020072Y014946D03*
D15*
X016570Y015720D03*
X016070Y015720D03*
X015570Y015720D03*
X015070Y015720D03*
X014570Y015720D03*
X014070Y015720D03*
X013570Y015720D03*
X013570Y018140D03*
X014070Y018140D03*
X014570Y018140D03*
X015070Y018140D03*
X015570Y018140D03*
X016070Y018140D03*
X016570Y018140D03*
D16*
X009360Y011025D03*
X009360Y012875D03*
D17*
X004290Y015386D03*
X004290Y016094D03*
D18*
X017066Y022946D03*
X017814Y022946D03*
X017440Y023773D03*
M02*
