G75*
%MOIN*%
%OFA0B0*%
%FSLAX24Y24*%
%IPPOS*%
%LPD*%
%AMOC8*
5,1,8,0,0,1.08239X$1,22.5*
%
%ADD10C,0.0060*%
%ADD11C,0.0030*%
%ADD12C,0.0100*%
%ADD13C,0.0040*%
%ADD14C,0.0050*%
%ADD15R,0.0042X0.0021*%
%ADD16R,0.0105X0.0021*%
%ADD17R,0.0168X0.0021*%
%ADD18R,0.0189X0.0021*%
%ADD19R,0.0252X0.0021*%
%ADD20R,0.0294X0.0021*%
%ADD21R,0.0273X0.0021*%
%ADD22R,0.0273X0.0021*%
%ADD23R,0.0294X0.0021*%
%ADD24R,0.0273X0.0021*%
%ADD25R,0.0252X0.0021*%
%ADD26R,0.0252X0.0021*%
%ADD27R,0.0252X0.0021*%
%ADD28R,0.0273X0.0021*%
%ADD29R,0.0315X0.0021*%
%ADD30R,0.0294X0.0021*%
%ADD31R,0.0294X0.0021*%
%ADD32R,0.0315X0.0021*%
%ADD33R,0.0021X0.0021*%
%ADD34R,0.0357X0.0021*%
%ADD35R,0.0420X0.0021*%
%ADD36R,0.0378X0.0021*%
%ADD37R,0.0882X0.0021*%
%ADD38R,0.0903X0.0021*%
%ADD39R,0.0924X0.0021*%
%ADD40R,0.0945X0.0021*%
%ADD41R,0.0966X0.0021*%
%ADD42R,0.0966X0.0021*%
%ADD43R,0.0987X0.0021*%
%ADD44R,0.1008X0.0021*%
%ADD45R,0.1029X0.0021*%
%ADD46R,0.1029X0.0021*%
%ADD47R,0.1008X0.0021*%
%ADD48R,0.0987X0.0021*%
%ADD49R,0.0987X0.0021*%
%ADD50R,0.0924X0.0021*%
%ADD51R,0.0882X0.0021*%
%ADD52R,0.0861X0.0021*%
%ADD53R,0.0840X0.0021*%
%ADD54R,0.0819X0.0021*%
%ADD55R,0.0777X0.0021*%
%ADD56R,0.0735X0.0021*%
%ADD57R,0.0693X0.0021*%
%ADD58R,0.0630X0.0021*%
%ADD59R,0.0567X0.0021*%
%ADD60R,0.0525X0.0021*%
%ADD61R,0.0462X0.0021*%
%ADD62R,0.0357X0.0021*%
%ADD63R,0.0210X0.0021*%
D10*
X018740Y018700D02*
X019040Y018700D01*
X018890Y018550D02*
X018890Y018850D01*
X016020Y022310D02*
X010020Y022310D01*
X010020Y023310D01*
X016020Y023310D01*
X016020Y022310D01*
D11*
X016060Y020408D02*
X016060Y020214D01*
X016205Y020359D01*
X015915Y020359D01*
X015915Y020113D02*
X015915Y019920D01*
X015915Y020016D02*
X016205Y020016D01*
X016108Y019920D01*
X016157Y019818D02*
X016205Y019770D01*
X016205Y019673D01*
X016157Y019625D01*
X015963Y019625D01*
X015915Y019673D01*
X015915Y019770D01*
X015963Y019818D01*
X020095Y023303D02*
X020095Y023352D01*
X020143Y023400D01*
X020385Y023400D01*
X020385Y023352D02*
X020385Y023448D01*
X020337Y023550D02*
X020385Y023598D01*
X020385Y023695D01*
X020337Y023743D01*
X020288Y023743D01*
X020095Y023550D01*
X020095Y023743D01*
X020095Y023303D02*
X020143Y023255D01*
X020708Y018658D02*
X020660Y018609D01*
X020660Y018513D01*
X020708Y018464D01*
X020805Y018464D02*
X020853Y018561D01*
X020853Y018609D01*
X020805Y018658D01*
X020708Y018658D01*
X020805Y018464D02*
X020950Y018464D01*
X020950Y018658D01*
X020950Y018266D02*
X020660Y018266D01*
X020660Y018170D02*
X020660Y018363D01*
X020853Y018170D02*
X020950Y018266D01*
X020902Y018068D02*
X020950Y018020D01*
X020950Y017923D01*
X020902Y017875D01*
X020708Y017875D01*
X020660Y017923D01*
X020660Y018020D01*
X020708Y018068D01*
X018752Y008355D02*
X018607Y008355D01*
X018559Y008307D01*
X018559Y008210D01*
X018607Y008162D01*
X018752Y008162D01*
X018655Y008162D02*
X018559Y008065D01*
X018457Y008065D02*
X018264Y008065D01*
X018361Y008065D02*
X018361Y008355D01*
X018457Y008258D01*
X018163Y008210D02*
X017969Y008210D01*
X018018Y008065D02*
X018018Y008355D01*
X018163Y008210D01*
X018752Y008065D02*
X018752Y008355D01*
X019458Y007545D02*
X019396Y007484D01*
X019396Y007422D01*
X019458Y007360D01*
X019396Y007298D01*
X019396Y007237D01*
X019458Y007175D01*
X019582Y007175D01*
X019643Y007237D01*
X019765Y007298D02*
X019888Y007175D01*
X020012Y007298D01*
X020012Y007545D01*
X020133Y007484D02*
X020133Y007422D01*
X020195Y007360D01*
X020133Y007298D01*
X020133Y007237D01*
X020195Y007175D01*
X020318Y007175D01*
X020380Y007237D01*
X020257Y007360D02*
X020195Y007360D01*
X020133Y007484D02*
X020195Y007545D01*
X020318Y007545D01*
X020380Y007484D01*
X019765Y007545D02*
X019765Y007298D01*
X019643Y007484D02*
X019582Y007545D01*
X019458Y007545D01*
X019458Y007360D02*
X019520Y007360D01*
X019540Y004695D02*
X019492Y004647D01*
X019492Y004598D01*
X019540Y004550D01*
X019492Y004502D01*
X019492Y004453D01*
X019540Y004405D01*
X019637Y004405D01*
X019685Y004453D01*
X019787Y004405D02*
X019883Y004502D01*
X019835Y004502D02*
X019980Y004502D01*
X019980Y004405D02*
X019980Y004695D01*
X019835Y004695D01*
X019787Y004647D01*
X019787Y004550D01*
X019835Y004502D01*
X019685Y004647D02*
X019637Y004695D01*
X019540Y004695D01*
X019540Y004550D02*
X019589Y004550D01*
X020235Y002635D02*
X020380Y002490D01*
X020187Y002490D01*
X020235Y002345D02*
X020235Y002635D01*
X020482Y002587D02*
X020482Y002490D01*
X020530Y002442D01*
X020675Y002442D01*
X020578Y002442D02*
X020482Y002345D01*
X020675Y002345D02*
X020675Y002635D01*
X020530Y002635D01*
X020482Y002587D01*
X018775Y001495D02*
X018775Y001398D01*
X018727Y001350D01*
X018775Y001248D02*
X018775Y001152D01*
X018775Y001200D02*
X018533Y001200D01*
X018485Y001152D01*
X018485Y001103D01*
X018533Y001055D01*
X018533Y001350D02*
X018485Y001398D01*
X018485Y001495D01*
X018533Y001543D01*
X018582Y001543D01*
X018630Y001495D01*
X018630Y001446D01*
X018630Y001495D02*
X018678Y001543D01*
X018727Y001543D01*
X018775Y001495D01*
X016705Y007208D02*
X016415Y007208D01*
X016512Y007208D02*
X016512Y007353D01*
X016560Y007402D01*
X016657Y007402D01*
X016705Y007353D01*
X016705Y007208D01*
X016512Y007305D02*
X016415Y007402D01*
X016415Y007503D02*
X016415Y007696D01*
X016415Y007600D02*
X016705Y007600D01*
X016608Y007503D01*
X016560Y007797D02*
X016608Y007894D01*
X016608Y007943D01*
X016560Y007991D01*
X016463Y007991D01*
X016415Y007943D01*
X016415Y007846D01*
X016463Y007797D01*
X016560Y007797D02*
X016705Y007797D01*
X016705Y007991D01*
X009503Y019355D02*
X009380Y019355D01*
X009318Y019417D01*
X009318Y019540D01*
X009442Y019540D01*
X009565Y019417D02*
X009503Y019355D01*
X009565Y019417D02*
X009565Y019664D01*
X009503Y019725D01*
X009380Y019725D01*
X009318Y019664D01*
X009197Y019725D02*
X008950Y019355D01*
X008950Y019725D01*
X008828Y019725D02*
X008643Y019725D01*
X008581Y019664D01*
X008581Y019417D01*
X008643Y019355D01*
X008828Y019355D01*
X008828Y019725D01*
X009197Y019725D02*
X009197Y019355D01*
X009356Y022635D02*
X009550Y022635D01*
X009453Y022635D02*
X009453Y022925D01*
X009550Y022828D01*
X009651Y022925D02*
X009748Y022925D01*
X009699Y022925D02*
X009699Y022683D01*
X009748Y022635D01*
X009796Y022635D01*
X009844Y022683D01*
X010021Y023625D02*
X009972Y023673D01*
X009972Y023867D01*
X010021Y023915D01*
X010166Y023915D01*
X010166Y023625D01*
X010021Y023625D01*
X010267Y023625D02*
X010267Y023915D01*
X010460Y023915D02*
X010267Y023625D01*
X010460Y023625D02*
X010460Y023915D01*
X010562Y023867D02*
X010610Y023915D01*
X010707Y023915D01*
X010755Y023867D01*
X010755Y023673D01*
X010707Y023625D01*
X010610Y023625D01*
X010562Y023673D01*
X010562Y023770D01*
X010658Y023770D01*
X002494Y023313D02*
X002446Y023265D01*
X002398Y023265D01*
X002349Y023313D01*
X002349Y023555D01*
X002301Y023555D02*
X002398Y023555D01*
X002200Y023410D02*
X002006Y023410D01*
X002055Y023265D02*
X002055Y023555D01*
X002200Y023410D01*
X000887Y015345D02*
X000887Y015151D01*
X000887Y015248D02*
X001177Y015248D01*
X001081Y015151D01*
X001177Y015050D02*
X000887Y015050D01*
X000984Y014954D01*
X000887Y014857D01*
X001177Y014857D01*
X001129Y014756D02*
X001177Y014707D01*
X001177Y014611D01*
X001129Y014562D01*
X001081Y014562D01*
X001032Y014611D01*
X001032Y014707D01*
X000984Y014756D01*
X000935Y014756D01*
X000887Y014707D01*
X000887Y014611D01*
X000935Y014562D01*
X000889Y012595D02*
X000986Y012547D01*
X001083Y012450D01*
X000938Y012450D01*
X000889Y012402D01*
X000889Y012353D01*
X000938Y012305D01*
X001034Y012305D01*
X001083Y012353D01*
X001083Y012450D01*
X001184Y012450D02*
X001232Y012402D01*
X001377Y012402D01*
X001281Y012402D02*
X001184Y012305D01*
X001184Y012450D02*
X001184Y012547D01*
X001232Y012595D01*
X001377Y012595D01*
X001377Y012305D01*
X002299Y012313D02*
X002347Y012265D01*
X002444Y012265D01*
X002492Y012313D01*
X002492Y012410D02*
X002395Y012458D01*
X002347Y012458D01*
X002299Y012410D01*
X002299Y012313D01*
X002492Y012410D02*
X002492Y012555D01*
X002299Y012555D01*
X002593Y012507D02*
X002593Y012410D01*
X002642Y012362D01*
X002787Y012362D01*
X002690Y012362D02*
X002593Y012265D01*
X002787Y012265D02*
X002787Y012555D01*
X002642Y012555D01*
X002593Y012507D01*
X001867Y011165D02*
X001722Y011165D01*
X001674Y011117D01*
X001674Y011020D01*
X001722Y010972D01*
X001867Y010972D01*
X001771Y010972D02*
X001674Y010875D01*
X001573Y010923D02*
X001524Y010875D01*
X001428Y010875D01*
X001379Y010923D01*
X001379Y011117D01*
X001428Y011165D01*
X001524Y011165D01*
X001573Y011117D01*
X001573Y011068D01*
X001524Y011020D01*
X001379Y011020D01*
X001867Y010875D02*
X001867Y011165D01*
X001967Y010435D02*
X001918Y010387D01*
X001918Y010290D01*
X001967Y010242D01*
X002112Y010242D01*
X002015Y010242D02*
X001918Y010145D01*
X001817Y010145D02*
X001624Y010145D01*
X001720Y010145D02*
X001720Y010435D01*
X001817Y010338D01*
X001967Y010435D02*
X002112Y010435D01*
X002112Y010145D01*
X001523Y010193D02*
X001329Y010387D01*
X001329Y010193D01*
X001377Y010145D01*
X001474Y010145D01*
X001523Y010193D01*
X001523Y010387D01*
X001474Y010435D01*
X001377Y010435D01*
X001329Y010387D01*
X001115Y009372D02*
X001115Y009179D01*
X001115Y009276D02*
X001405Y009276D01*
X001308Y009179D01*
X001357Y009078D02*
X001163Y009078D01*
X001115Y009029D01*
X001115Y008884D01*
X001405Y008884D01*
X001405Y009029D01*
X001357Y009078D01*
X001405Y008783D02*
X001405Y008590D01*
X001115Y008590D01*
X001115Y008783D01*
X001260Y008686D02*
X001260Y008590D01*
X001115Y008488D02*
X001115Y008295D01*
X001405Y008295D01*
X003445Y008635D02*
X003445Y008828D01*
X003445Y008930D02*
X003445Y009123D01*
X003445Y009224D02*
X003445Y009369D01*
X003493Y009418D01*
X003687Y009418D01*
X003735Y009369D01*
X003735Y009224D01*
X003445Y009224D01*
X003590Y009026D02*
X003590Y008930D01*
X003735Y008930D02*
X003445Y008930D01*
X003735Y008930D02*
X003735Y009123D01*
X003687Y009519D02*
X003735Y009567D01*
X003735Y009664D01*
X003687Y009712D01*
X003638Y009712D01*
X003445Y009519D01*
X003445Y009712D01*
X003445Y008635D02*
X003735Y008635D01*
D12*
X003420Y008260D02*
X003422Y008273D01*
X003427Y008286D01*
X003436Y008297D01*
X003447Y008304D01*
X003460Y008309D01*
X003473Y008310D01*
X003487Y008307D01*
X003499Y008301D01*
X003509Y008292D01*
X003516Y008280D01*
X003520Y008267D01*
X003520Y008253D01*
X003516Y008240D01*
X003509Y008228D01*
X003499Y008219D01*
X003487Y008213D01*
X003473Y008210D01*
X003460Y008211D01*
X003447Y008216D01*
X003436Y008223D01*
X003427Y008234D01*
X003422Y008247D01*
X003420Y008260D01*
X001320Y009510D02*
X001322Y009523D01*
X001327Y009536D01*
X001336Y009547D01*
X001347Y009554D01*
X001360Y009559D01*
X001373Y009560D01*
X001387Y009557D01*
X001399Y009551D01*
X001409Y009542D01*
X001416Y009530D01*
X001420Y009517D01*
X001420Y009503D01*
X001416Y009490D01*
X001409Y009478D01*
X001399Y009469D01*
X001387Y009463D01*
X001373Y009460D01*
X001360Y009461D01*
X001347Y009466D01*
X001336Y009473D01*
X001327Y009484D01*
X001322Y009497D01*
X001320Y009510D01*
D13*
X004626Y007929D02*
X004933Y007929D01*
X004780Y007929D02*
X004780Y008389D01*
X004933Y008236D01*
X005004Y017858D02*
X004697Y017858D01*
X004697Y018165D02*
X004697Y018241D01*
X004774Y018318D01*
X004927Y018318D01*
X005004Y018241D01*
X004697Y018165D02*
X005004Y017858D01*
X009705Y017938D02*
X009782Y017862D01*
X009935Y017862D01*
X010012Y017938D01*
X009858Y018092D02*
X009782Y018092D01*
X009705Y018015D01*
X009705Y017938D01*
X009782Y018092D02*
X009705Y018169D01*
X009705Y018245D01*
X009782Y018322D01*
X009935Y018322D01*
X010012Y018245D01*
X010788Y018092D02*
X011094Y018092D01*
X010864Y018322D01*
X010864Y017862D01*
X011890Y017923D02*
X011967Y017846D01*
X012120Y017846D01*
X012197Y017923D01*
X012197Y018076D02*
X012043Y018153D01*
X011967Y018153D01*
X011890Y018076D01*
X011890Y017923D01*
X012197Y018076D02*
X012197Y018306D01*
X011890Y018306D01*
X011779Y023820D02*
X011519Y023820D01*
X011519Y024080D01*
X011605Y024167D01*
X011779Y024167D01*
X011779Y023993D02*
X011519Y023993D01*
X011779Y023993D02*
X011866Y023907D01*
X011779Y023820D01*
X012550Y024167D02*
X012723Y023820D01*
X012897Y024167D01*
X013066Y024080D02*
X013066Y023993D01*
X013413Y023993D01*
X013413Y023907D02*
X013413Y024080D01*
X013326Y024167D01*
X013152Y024167D01*
X013066Y024080D01*
X013152Y023820D02*
X013326Y023820D01*
X013413Y023907D01*
X013582Y024167D02*
X013669Y024167D01*
X013842Y023993D01*
X013842Y023820D02*
X013842Y024167D01*
X014527Y024080D02*
X014613Y024167D01*
X014787Y024167D01*
X014874Y024080D01*
X014874Y023907D01*
X014787Y023820D01*
X014613Y023820D01*
X014527Y023907D01*
X014527Y024080D01*
X015042Y024080D02*
X015042Y023993D01*
X015389Y023993D01*
X015389Y023907D02*
X015389Y024080D01*
X015302Y024167D01*
X015129Y024167D01*
X015042Y024080D01*
X015129Y023820D02*
X015302Y023820D01*
X015389Y023907D01*
X015558Y023820D02*
X015558Y024080D01*
X015645Y024167D01*
X015905Y024167D01*
X015905Y023820D01*
X018437Y018322D02*
X018591Y018245D01*
X018744Y018092D01*
X018514Y018092D01*
X018437Y018015D01*
X018437Y017938D01*
X018514Y017862D01*
X018667Y017862D01*
X018744Y017938D01*
X018744Y018092D01*
X019606Y009543D02*
X019606Y009466D01*
X019913Y009159D01*
X019913Y009082D01*
X019913Y009543D02*
X019606Y009543D01*
D14*
X019260Y008570D02*
X019260Y017668D01*
X003910Y017668D01*
X003910Y008570D01*
X019260Y008570D01*
X018880Y007875D02*
X018880Y007285D01*
X017660Y007285D01*
X017660Y007875D01*
X018880Y007875D01*
X017505Y007850D02*
X017505Y006630D01*
X016915Y006630D01*
X016915Y007850D01*
X017505Y007850D01*
X019455Y004165D02*
X020675Y004165D01*
X020675Y003575D01*
X019455Y003575D01*
X019455Y004165D01*
X019460Y003385D02*
X020680Y003385D01*
X020680Y002795D01*
X019460Y002795D01*
X019460Y003385D01*
X019755Y017269D02*
X019755Y018451D01*
X020385Y018451D01*
X020385Y017269D01*
X019755Y017269D01*
X017849Y018719D02*
X017849Y021081D01*
X017850Y021081D02*
X017848Y021054D01*
X017843Y021028D01*
X017834Y021003D01*
X017821Y020979D01*
X017806Y020957D01*
X017787Y020937D01*
X017767Y020920D01*
X017744Y020906D01*
X017719Y020895D01*
X017693Y020888D01*
X017666Y020884D01*
X017640Y020884D01*
X017613Y020888D01*
X017587Y020895D01*
X017562Y020906D01*
X017539Y020920D01*
X017519Y020937D01*
X017500Y020957D01*
X017485Y020979D01*
X017472Y021003D01*
X017463Y021028D01*
X017458Y021054D01*
X017456Y021081D01*
X014109Y021081D01*
X014109Y018719D01*
X017456Y018719D01*
X017458Y018746D01*
X017463Y018772D01*
X017472Y018797D01*
X017485Y018821D01*
X017500Y018843D01*
X017519Y018863D01*
X017539Y018880D01*
X017562Y018894D01*
X017587Y018905D01*
X017613Y018912D01*
X017640Y018916D01*
X017666Y018916D01*
X017693Y018912D01*
X017719Y018905D01*
X017744Y018894D01*
X017767Y018880D01*
X017787Y018863D01*
X017806Y018843D01*
X017821Y018821D01*
X017834Y018797D01*
X017843Y018772D01*
X017848Y018746D01*
X017850Y018719D01*
X018601Y022519D02*
X018601Y022953D01*
X018876Y022953D01*
X018876Y023740D01*
X018601Y023740D01*
X018601Y024173D01*
X019861Y024173D01*
X019861Y022519D01*
X018601Y022519D01*
X007994Y024614D02*
X007994Y019339D01*
X001419Y019339D01*
X001419Y024614D01*
X007994Y024614D01*
X003751Y015549D02*
X001389Y015549D01*
X001389Y012951D01*
X003751Y012951D01*
X003751Y015549D01*
X002176Y014250D02*
X002178Y014289D01*
X002184Y014328D01*
X002194Y014366D01*
X002207Y014403D01*
X002224Y014438D01*
X002244Y014472D01*
X002268Y014503D01*
X002295Y014532D01*
X002324Y014558D01*
X002356Y014581D01*
X002390Y014601D01*
X002426Y014617D01*
X002463Y014629D01*
X002502Y014638D01*
X002541Y014643D01*
X002580Y014644D01*
X002619Y014641D01*
X002658Y014634D01*
X002695Y014623D01*
X002732Y014609D01*
X002767Y014591D01*
X002800Y014570D01*
X002831Y014545D01*
X002859Y014518D01*
X002884Y014488D01*
X002906Y014455D01*
X002925Y014421D01*
X002940Y014385D01*
X002952Y014347D01*
X002960Y014309D01*
X002964Y014270D01*
X002964Y014230D01*
X002960Y014191D01*
X002952Y014153D01*
X002940Y014115D01*
X002925Y014079D01*
X002906Y014045D01*
X002884Y014012D01*
X002859Y013982D01*
X002831Y013955D01*
X002800Y013930D01*
X002767Y013909D01*
X002732Y013891D01*
X002695Y013877D01*
X002658Y013866D01*
X002619Y013859D01*
X002580Y013856D01*
X002541Y013857D01*
X002502Y013862D01*
X002463Y013871D01*
X002426Y013883D01*
X002390Y013899D01*
X002356Y013919D01*
X002324Y013942D01*
X002295Y013968D01*
X002268Y013997D01*
X002244Y014028D01*
X002224Y014062D01*
X002207Y014097D01*
X002194Y014134D01*
X002184Y014172D01*
X002178Y014211D01*
X002176Y014250D01*
X001978Y014250D02*
X001980Y014298D01*
X001986Y014346D01*
X001996Y014393D01*
X002009Y014440D01*
X002027Y014485D01*
X002048Y014528D01*
X002072Y014570D01*
X002100Y014610D01*
X002131Y014647D01*
X002164Y014681D01*
X002201Y014713D01*
X002240Y014741D01*
X002281Y014767D01*
X002324Y014789D01*
X002369Y014807D01*
X002415Y014821D01*
X002462Y014832D01*
X002510Y014839D01*
X002558Y014842D01*
X002606Y014841D01*
X002654Y014836D01*
X002702Y014827D01*
X002748Y014814D01*
X002794Y014798D01*
X002838Y014778D01*
X002880Y014754D01*
X002920Y014728D01*
X002958Y014697D01*
X002993Y014664D01*
X003025Y014628D01*
X003055Y014590D01*
X003081Y014549D01*
X003103Y014507D01*
X003123Y014463D01*
X003138Y014417D01*
X003150Y014370D01*
X003158Y014322D01*
X003162Y014274D01*
X003162Y014226D01*
X003158Y014178D01*
X003150Y014130D01*
X003138Y014083D01*
X003123Y014037D01*
X003103Y013993D01*
X003081Y013951D01*
X003055Y013910D01*
X003025Y013872D01*
X002993Y013836D01*
X002958Y013803D01*
X002920Y013772D01*
X002880Y013746D01*
X002838Y013722D01*
X002794Y013702D01*
X002748Y013686D01*
X002702Y013673D01*
X002654Y013664D01*
X002606Y013659D01*
X002558Y013658D01*
X002510Y013661D01*
X002462Y013668D01*
X002415Y013679D01*
X002369Y013693D01*
X002324Y013711D01*
X002281Y013733D01*
X002240Y013759D01*
X002201Y013787D01*
X002164Y013819D01*
X002131Y013853D01*
X002100Y013890D01*
X002072Y013930D01*
X002048Y013972D01*
X002027Y014015D01*
X002009Y014060D01*
X001996Y014107D01*
X001986Y014154D01*
X001980Y014202D01*
X001978Y014250D01*
X002060Y012105D02*
X000840Y012105D01*
X000840Y011515D01*
X002060Y011515D01*
X002060Y012105D01*
X002395Y012095D02*
X003615Y012095D01*
X003615Y011505D01*
X002395Y011505D01*
X002395Y012095D01*
X002110Y011255D02*
X003330Y011255D01*
X003330Y010665D01*
X002110Y010665D01*
X002110Y011255D01*
X002515Y010515D02*
X003735Y010515D01*
X003735Y009925D01*
X002515Y009925D01*
X002515Y010515D01*
X002664Y009619D02*
X003216Y009619D01*
X003216Y008201D01*
X002664Y008201D01*
X002664Y009619D01*
X002146Y009629D02*
X001594Y009629D01*
X001594Y008211D01*
X002146Y008211D01*
X002146Y009629D01*
D15*
X021453Y008786D03*
D16*
X021421Y008807D03*
D17*
X021390Y008828D03*
D18*
X021379Y008849D03*
D19*
X021348Y008870D03*
X020801Y009395D03*
D20*
X020781Y009416D03*
X020760Y009479D03*
X020739Y009521D03*
X020739Y009542D03*
X020739Y009563D03*
X021054Y009059D03*
X021285Y008912D03*
X021327Y008891D03*
D21*
X021253Y008933D03*
X021148Y008996D03*
X020938Y009164D03*
X020917Y009206D03*
X020833Y009332D03*
X020812Y009353D03*
X020812Y009374D03*
D22*
X020770Y009458D03*
X020896Y009227D03*
X020959Y009143D03*
X020980Y009122D03*
X021001Y009101D03*
X021085Y009038D03*
X021106Y009017D03*
X021211Y008954D03*
D23*
X021180Y008975D03*
D24*
X021022Y009080D03*
X020917Y009185D03*
D25*
X020865Y009248D03*
X020865Y009269D03*
X020781Y009437D03*
D26*
X020865Y009290D03*
D27*
X020823Y009311D03*
X021159Y009752D03*
D28*
X020749Y009500D03*
D29*
X020728Y009584D03*
X020707Y009647D03*
X020707Y009668D03*
X020707Y009689D03*
X020707Y009731D03*
X020707Y009752D03*
X021148Y009773D03*
D30*
X020718Y009605D03*
D31*
X020718Y009626D03*
D32*
X020707Y009710D03*
D33*
X021337Y009773D03*
D34*
X020707Y009773D03*
D35*
X021138Y009794D03*
D36*
X020718Y009794D03*
D37*
X020970Y009815D03*
D38*
X020980Y009836D03*
X021085Y010319D03*
D39*
X020991Y009857D03*
D40*
X021001Y009878D03*
D41*
X021012Y009899D03*
X021075Y010256D03*
X021075Y010277D03*
X021075Y010298D03*
D42*
X021012Y009920D03*
D43*
X021022Y009941D03*
X021022Y009962D03*
D44*
X021033Y009983D03*
X021033Y010004D03*
X021054Y010088D03*
X021054Y010109D03*
X021054Y010151D03*
X021054Y010172D03*
D45*
X021043Y010025D03*
D46*
X021043Y010046D03*
X021043Y010067D03*
D47*
X021054Y010130D03*
D48*
X021064Y010193D03*
X021064Y010214D03*
D49*
X021064Y010235D03*
D50*
X021075Y010340D03*
D51*
X021075Y010361D03*
D52*
X021085Y010382D03*
D53*
X021075Y010403D03*
D54*
X021085Y010424D03*
D55*
X021085Y010445D03*
D56*
X021085Y010466D03*
D57*
X021085Y010487D03*
D58*
X021095Y010508D03*
D59*
X021085Y010529D03*
D60*
X021106Y010550D03*
D61*
X021096Y010571D03*
D62*
X021106Y010592D03*
D63*
X021095Y010613D03*
M02*
