INCH,TZ
%
M48
M72
T01C0.0197
T02C0.0315
T03C0.0320
T04C0.0354
T05C0.0400
T06C0.0433
T07C0.0551
T08C0.0630
T09C0.0984
T10C0.1260
%
T01
X19270Y23110
X19270Y23602
T02
X19260Y21920
X15040Y19320
X13380Y20780
X12460Y18190
X13200Y14570
X10760Y11160
X10990Y9520
X10990Y8890
X12780Y8080
X13410Y8090
X15570Y7980
X20340Y4880
X20960Y4880
X19680Y1980
X20040Y13510
X18100Y13450
X6790Y13470
T03
X18440Y19200
X18440Y20600
T04
X6096Y20870
X5293Y20870
X4490Y20870
X3687Y20870
X4089Y21870
X4892Y21870
X5695Y21870
X3285Y21870
T05
X9060Y18810
X10510Y22810
X11510Y22810
X12510Y22810
X13510Y22810
X14510Y22810
X15510Y22810
X19750Y8150
T06
X17580Y4366
X17580Y2594
T07
X4709Y9369
X4709Y16869
X9709Y16869
X10961Y16869
X12213Y16869
X18461Y16869
X18461Y9369
T08
X7821Y21622
X1561Y21622
T09
X17580Y5724
X17580Y1236
T10
X21020Y1510
X7191Y20520
X2270Y17520
X2191Y20520
X21020Y22090
M30
